{"title":"Multi Million Dollar Mega Yachts","uid":15978354,"size":392046256,"categoryP":"video","categoryS":"tv_shows","magnet":"?xt=urn:btih:25fc2802b61e3bd3a9e91b306f778c6ec3cde750&amp;dn=Multi+Million+Dollar+Mega+Yachts&amp;tr=udp%3A%2F%2Ftracker.leechers-paradise.org%3A6969&amp;tr=udp%3A%2F%2Fzer0day.ch%3A1337&amp;tr=udp%3A%2F%2Fopen.demonii.com%3A1337&amp;tr=udp%3A%2F%2Ftracker.coppersurfer.tk%3A6969&amp;tr=udp%3A%2F%2Fexodus.desync.com%3A6969","seeders":9,"leechers":2,"uploader":"Bullrout","files":1,"time":1475867777,"description":"Multi Million Dollar Mega Yachts\r\n\r\nA look into the secret, super-luxury world of the mega yacht, as 120 of the floating palaces, and some of their multi-millionaire owners, get together for the annual Monaco Yacht Show.\r\n\r\nComplete name                            : Multi Million Dollar Mega Yachts.mp4\r\nFormat                                   : MPEG-4\r\nFormat profile                           : Base Media / Version 2\r\nCodec ID                                 : mp42 (mp42/isom/avc1)\r\nFile size                                : 374 MiB\r\nDuration                                 : 47 min 20 s\r\nOverall bit rate mode                    : Variable\r\nOverall bit rate                         : 1 104 kb/s\r\n\r\nVideo\r\nID                                       : 2\r\nFormat                                   : AVC\r\nFormat/Info                              : Advanced Video Codec\r\nFormat profile                           :   \r\nFormat settings, CABAC                   : Yes\r\nFormat settings, ReFrames                : 3 frames\r\nCodec ID                                 : avc1\r\nCodec ID/Info                            : Advanced Video Coding\r\nDuration                                 : 47 min 20 s\r\nBit rate mode                            : Variable\r\nBit rate                                 : 972 kb/s\r\nMaximum bit rate                         : 1 000 kb/s\r\nWidth                                    : 720 pixels\r\nHeight                                   : 404 pixels\r\nDisplay aspect ratio                     : 16:9\r\nOriginal display aspect ratio            : 16:9\r\nFrame rate mode                          : Constant\r\nFrame rate                               : 25.000 FPS\r\nStandard                                 : PAL\r\nColor space                              : YUV\r\nChroma subsampling                       : 4:2:0\r\nBit depth                                : 8 bits\r\nScan type                                : Progressive\r\nBits/(Pixel*Frame)                       : 0.134\r\nStream size                              : 329 MiB (88%)\r\nWriting library                          : x264 core 112\r\nColor range                              : Limited\r\nColor primaries                          : BT.601 PAL\r\nTransfer characteristics                 : BT.470 System B, BT.470 System G\r\nMatrix coefficients                      : BT.601\r\n\r\nAudio\r\nID                                       : 1\r\nFormat                                   : AAC\r\nFormat/Info                              : Advanced Audio Codec\r\nFormat profile                           : LC\r\nCodec ID                                 : 40\r\nDuration                                 : 47 min 20 s\r\nBit rate mode                            : Variable\r\nBit rate                                 : 128 kb/s\r\nMaximum bit rate                         : 576 kb/s\r\nChannel(s)                               : 2 channels\r\nChannel positions                        : Front: L R\r\nSampling rate                            : 48.0 kHz\r\nFrame rate                               : 46.875 FPS (1024 spf)\r\nCompression mode                         : Lossy\r\nStream size                              : 43.4 MiB (12%)","torrent":{"xt":"urn:btih:25fc2802b61e3bd3a9e91b306f778c6ec3cde750","amp;dn":"Multi+Million+Dollar+Mega+Yachts","amp;tr":["udp%3A%2F%2Ftracker.leechers-paradise.org%3A6969","udp%3A%2F%2Fzer0day.ch%3A1337","udp%3A%2F%2Fopen.demonii.com%3A1337","udp%3A%2F%2Ftracker.coppersurfer.tk%3A6969","udp%3A%2F%2Fexodus.desync.com%3A6969"],"infoHash":"25fc2802b61e3bd3a9e91b306f778c6ec3cde750","infoHashBuffer":{"type":"Buffer","data":[37,252,40,2,182,30,59,211,169,233,27,48,111,119,140,110,195,205,231,80]},"announce":[],"urlList":[]}}